# xmcd
#
# Track frame offsets: 
#        150
#        68638
#        129726
#        221133
#
# Disc length: 3646 seconds
#
# Revision: 0
# Processed by: cddbd v1.5.1PL0 Copyright (c) Steve Scherf et al.
# Submitted via: ExactAudioCopy v0.95a5
#
DISCID=3b0e3c04
DTITLE=william basinski - cd 2 variations: a movement in chrome primit
DTITLE=ive
DYEAR=1981
DGENRE=A Cappella
TTITLE0=var_5
TTITLE1=var_6
TTITLE2=var_7
TTITLE3=var_8
EXTD=
EXTT0=
EXTT1=
EXTT2=
EXTT3=
PLAYORDER=
